<svg width="22" height="26" viewBox="0 0 22 26" fill="none" xmlns="http://www.w3.org/2000/svg">
<path d="M20.567 8.98418C20.4179 9.09846 17.7849 10.5638 17.7849 13.822C17.7849 17.5907 21.1353 18.9239 21.2355 18.9569C21.2201 19.0382 20.7033 20.7829 19.4691 22.5605C18.3686 24.1249 17.2192 25.6867 15.4707 25.6867C13.7223 25.6867 13.2723 24.6836 11.2538 24.6836C9.28679 24.6836 8.5874 25.7197 6.98807 25.7197C5.38873 25.7197 4.27279 24.2722 2.98972 22.4945C1.50352 20.407 0.302734 17.164 0.302734 14.0861C0.302734 9.14925 3.55283 6.53099 6.75151 6.53099C8.45113 6.53099 9.8679 7.63315 10.935 7.63315C11.9506 7.63315 13.5346 6.46496 15.4682 6.46496C16.201 6.46496 18.834 6.53099 20.567 8.98418ZM14.5502 4.37492C15.3499 3.43783 15.9156 2.13759 15.9156 0.837351C15.9156 0.657044 15.9001 0.474197 15.8667 0.326904C14.5656 0.375155 13.0177 1.18273 12.0843 2.25187C11.3515 3.07468 10.6676 4.37492 10.6676 5.69294C10.6676 5.89103 10.701 6.08911 10.7164 6.1526C10.7987 6.16783 10.9324 6.18561 11.0661 6.18561C12.2335 6.18561 13.7017 5.41359 14.5502 4.37492Z" fill="white"/>
</svg>
