<svg width="27" height="33" viewBox="0 0 27 33" fill="none" xmlns="http://www.w3.org/2000/svg">
<path d="M25.4068 11.5622C25.2198 11.7055 21.9186 13.5426 21.9186 17.6277C21.9186 22.3527 26.1192 24.0243 26.2449 24.0657C26.2256 24.1676 25.5776 26.355 24.0302 28.5838C22.6504 30.5452 21.2094 32.5033 19.0172 32.5033C16.825 32.5033 16.2608 31.2456 13.7302 31.2456C11.2639 31.2456 10.3871 32.5447 8.38188 32.5447C6.37667 32.5447 4.97754 30.7298 3.36887 28.501C1.50551 25.8838 0 21.8178 0 17.9588C0 11.7691 4.07488 8.48645 8.08529 8.48645C10.2162 8.48645 11.9925 9.8683 13.3304 9.8683C14.6038 9.8683 16.5897 8.40366 19.014 8.40366C19.9327 8.40366 23.2339 8.48645 25.4068 11.5622ZM17.8631 5.78323C18.8657 4.60834 19.5749 2.97814 19.5749 1.34793C19.5749 1.12187 19.5556 0.892618 19.5136 0.707947C17.8824 0.768443 15.9417 1.78095 14.7714 3.12141C13.8527 4.15303 12.9951 5.78323 12.9951 7.43573C12.9951 7.68408 13.037 7.93243 13.0564 8.01203C13.1595 8.03113 13.3272 8.05342 13.4948 8.05342C14.9584 8.05342 16.7992 7.08549 17.8631 5.78323Z" fill="black"/>
</svg>
