<svg width="45" height="44" viewBox="0 0 45 44" fill="none" xmlns="http://www.w3.org/2000/svg">
<path d="M16.2141 31.4294C24.8929 31.4294 31.9284 24.3939 31.9284 15.7151C31.9284 14.7315 31.8381 13.769 31.6652 12.8355C30.7316 12.6626 29.7692 12.5723 28.7856 12.5723C20.1068 12.5723 13.0713 19.6078 13.0713 28.2866C13.0713 29.2701 13.1617 30.2326 13.3345 31.1662C14.2681 31.339 15.2306 31.4294 16.2141 31.4294Z" fill="#175CD3"/>
<path fill-rule="evenodd" clip-rule="evenodd" d="M13.3347 31.1653C6.03118 29.8127 0.5 23.4095 0.5 15.7143C0.5 7.03553 7.53553 0 16.2143 0C23.9095 0 30.3128 5.53118 31.6653 12.8347C30.7318 12.6618 29.7693 12.5714 28.7857 12.5714C20.107 12.5714 13.0714 19.607 13.0714 28.2857C13.0714 29.2693 13.1618 30.2318 13.3347 31.1653Z" fill="#1570EF"/>
<path fill-rule="evenodd" clip-rule="evenodd" d="M16.2146 31.4279C24.8933 31.4279 31.9289 24.3923 31.9289 15.7136C31.9289 14.73 31.8385 13.7675 31.6656 12.834C38.9691 14.1866 44.5003 20.5898 44.5003 28.285C44.5003 36.9638 37.4648 43.9993 28.786 43.9993C21.0908 43.9993 14.6875 38.4681 13.335 31.1646C14.2685 31.3375 15.231 31.4279 16.2146 31.4279Z" fill="#2E90FA"/>
</svg>
