<svg width="24" height="24" viewBox="0 0 24 24" fill="none" xmlns="http://www.w3.org/2000/svg">
<path d="M12 1.17188C10.8281 1.17188 9.76402 1.26703 9.01871 1.41328C8.72809 1.47094 8.50309 1.5375 8.32965 1.60125C8.50309 1.665 8.72809 1.73156 9.01871 1.78922C9.76402 1.93547 10.8281 2.03063 12 2.03063C13.1718 2.03063 14.2359 1.93547 14.9812 1.78922C15.2718 1.73156 15.4968 1.665 15.6703 1.60125C15.4968 1.5375 15.2718 1.47094 14.9812 1.41328C14.2359 1.26703 13.1718 1.17188 12 1.17188ZM7.27496 1.42078C6.37965 1.83797 5.89684 2.64047 6.01871 3.44016C6.11246 4.01766 6.52965 4.54219 7.19059 4.81453C7.57027 4.97391 8.02965 5.05828 8.56871 5.05359C9.19215 6.21141 10.0359 7.16766 10.9406 7.61297V9.67078C10.1437 10.1536 9.61402 11.1567 9.09371 12.188C10.9125 12.652 13.0921 12.6286 14.9015 12.1833C14.3859 11.152 13.8515 10.1536 13.0593 9.67078V7.61297C13.964 7.16766 14.8078 6.21141 15.4312 5.05359C15.9703 5.05828 16.4296 4.97391 16.8093 4.81453C17.4703 4.54219 17.8875 4.01766 17.9812 3.44016C18.1031 2.64047 17.6203 1.83797 16.725 1.42078C16.7437 1.47703 16.7531 1.53703 16.7531 1.60125C16.7531 1.80516 16.6453 1.97203 16.5328 2.07703C16.425 2.18203 16.3031 2.25188 16.1671 2.31516C15.8953 2.44172 15.5531 2.53641 15.1406 2.61703C14.3203 2.77922 13.2187 2.87437 12 2.87437C10.7812 2.87437 9.67965 2.77922 8.85934 2.61703C8.44684 2.53641 8.10465 2.44172 7.83277 2.31516C7.69684 2.25188 7.57496 2.18203 7.46715 2.07703C7.35465 1.97203 7.24684 1.80516 7.24684 1.60125C7.24684 1.53703 7.25621 1.47703 7.27496 1.42078ZM7.58434 2.18531C7.69215 2.8575 7.88902 3.54047 8.1609 4.18875C7.8984 4.16297 7.68746 4.10859 7.51402 4.03688C7.0734 3.85406 6.89527 3.58547 6.85309 3.30984C6.79684 2.93813 7.00777 2.45906 7.58434 2.18531ZM16.4156 2.18531C16.9921 2.45906 17.2031 2.93813 17.1468 3.30984C17.1046 3.58547 16.9265 3.85406 16.4859 4.03688C16.3125 4.10859 16.1015 4.16297 15.839 4.18875C16.1109 3.54047 16.3078 2.8575 16.4156 2.18531ZM12 13.0317L4.49902 16.7817L10.5 16.0317L8.99996 22.7817H15L13.5 16.0317L19.5 16.7817L12 13.0317Z" fill="#F7413D"/>
</svg>
