<svg width="20" height="20" viewBox="0 0 20 20" fill="none" xmlns="http://www.w3.org/2000/svg">
<path d="M20 5.82C20.006 5.75681 20.006 5.69319 20 5.63L18 0.630001C17.9219 0.432357 17.7828 0.264737 17.603 0.151456C17.4232 0.0381757 17.212 -0.0148748 17 5.46919e-07H3C2.79972 -0.000193335 2.604 0.0597553 2.43818 0.172081C2.27237 0.284407 2.1441 0.443935 2.07 0.630001L0.0699999 5.63C0.0639696 5.69319 0.0639696 5.75681 0.0699999 5.82C0.0370997 5.87583 0.0134603 5.93661 0 6C0.0111306 6.69124 0.201226 7.3678 0.551745 7.96368C0.902263 8.55956 1.40124 9.05442 2 9.4V19C2 19.2652 2.10536 19.5196 2.29289 19.7071C2.48043 19.8946 2.73478 20 3 20H17C17.2652 20 17.5196 19.8946 17.7071 19.7071C17.8946 19.5196 18 19.2652 18 19V9.44C18.6046 9.09098 19.1072 8.58982 19.4581 7.98634C19.809 7.38285 19.9958 6.69806 20 6C20.0091 5.94034 20.0091 5.87966 20 5.82ZM11 18H9V14H11V18ZM16 18H13V13C13 12.7348 12.8946 12.4804 12.7071 12.2929C12.5196 12.1054 12.2652 12 12 12H8C7.73478 12 7.48043 12.1054 7.29289 12.2929C7.10536 12.4804 7 12.7348 7 13V18H4V10C4.56947 9.99679 5.13169 9.87201 5.64905 9.63403C6.16642 9.39604 6.627 9.05032 7 8.62C7.37537 9.04563 7.83701 9.38651 8.35425 9.62C8.87149 9.85349 9.4325 9.97425 10 9.97425C10.5675 9.97425 11.1285 9.85349 11.6458 9.62C12.163 9.38651 12.6246 9.04563 13 8.62C13.373 9.05032 13.8336 9.39604 14.3509 9.63403C14.8683 9.87201 15.4305 9.99679 16 10V18ZM16 8C15.4696 8 14.9609 7.78929 14.5858 7.41421C14.2107 7.03914 14 6.53043 14 6C14 5.73478 13.8946 5.48043 13.7071 5.29289C13.5196 5.10536 13.2652 5 13 5C12.7348 5 12.4804 5.10536 12.2929 5.29289C12.1054 5.48043 12 5.73478 12 6C12 6.53043 11.7893 7.03914 11.4142 7.41421C11.0391 7.78929 10.5304 8 10 8C9.46957 8 8.96086 7.78929 8.58579 7.41421C8.21071 7.03914 8 6.53043 8 6C8 5.73478 7.89464 5.48043 7.70711 5.29289C7.51957 5.10536 7.26522 5 7 5C6.73478 5 6.48043 5.10536 6.29289 5.29289C6.10536 5.48043 6 5.73478 6 6C6.00985 6.26264 5.96787 6.52466 5.87646 6.77108C5.78505 7.0175 5.646 7.2435 5.46725 7.43618C5.28849 7.62886 5.07354 7.78445 4.83466 7.89406C4.59578 8.00367 4.33764 8.06515 4.075 8.075C3.54457 8.09489 3.02796 7.90325 2.63882 7.54225C2.44614 7.36349 2.29055 7.14854 2.18094 6.90966C2.07133 6.67078 2.00985 6.41264 2 6.15L3.68 2H16.32L18 6.15C17.9621 6.65402 17.7348 7.12499 17.3637 7.46821C16.9927 7.81142 16.5054 8.00142 16 8Z" fill="#F7413D"/>
</svg>
