<svg width="20" height="22" viewBox="0 0 20 22" fill="none" xmlns="http://www.w3.org/2000/svg">
<path d="M12.926 1.911L6.274 5.105C5.77193 5.34969 5.2009 5.41396 4.657 5.287C4.42752 5.23009 4.19562 5.18337 3.962 5.147C2.137 4.94 1 6.384 1 8.045V8.957C1 10.617 2.137 12.062 3.962 11.853C4.19587 11.8184 4.42783 11.772 4.657 11.714C5.20101 11.5873 5.77205 11.652 6.274 11.897L12.926 15.09C14.453 15.823 15.217 16.19 16.068 15.904C16.92 15.618 17.212 15.005 17.796 13.779C18.5885 12.1324 19.0001 10.3284 19.0001 8.501C19.0001 6.67358 18.5885 4.86962 17.796 3.223C17.212 1.997 16.92 1.383 16.068 1.098C15.217 0.812 14.453 1.177 12.926 1.911Z" stroke="#F7413D" stroke-width="1.5" stroke-linecap="round" stroke-linejoin="round"/>
<path d="M5.49986 11.5V5.5M9.45786 19.77L7.96686 21C4.60486 18.334 5.01586 17.063 5.01586 12H6.14986C6.60986 14.86 7.69486 16.216 9.19286 17.197C10.1149 17.801 10.3049 19.072 9.45786 19.77Z" stroke="#F7413D" stroke-width="1.5" stroke-linecap="round" stroke-linejoin="round"/>
</svg>
