<svg width="20" height="19" viewBox="0 0 20 19" fill="none" xmlns="http://www.w3.org/2000/svg">
<path d="M18 4.00001H15.82C15.93 3.69001 16 3.35001 16 3.00001C16.0011 2.35483 15.7939 1.72654 15.4092 1.2086C15.0245 0.690659 14.4829 0.310736 13.8649 0.125346C13.2469 -0.0600445 12.5856 -0.040996 11.9794 0.179658C11.3731 0.400311 10.8542 0.81078 10.5 1.35001L10 2.02001L9.5 1.34001C8.96 0.540007 8.05 7.00972e-06 7 7.00972e-06C5.34 7.00972e-06 4 1.34001 4 3.00001C4 3.35001 4.07 3.69001 4.18 4.00001H2C0.89 4.00001 0.00999999 4.89001 0.00999999 6.00001L0 17C0 18.11 0.89 19 2 19H18C19.11 19 20 18.11 20 17V6.00001C20 4.89001 19.11 4.00001 18 4.00001ZM13 2.00001C13.55 2.00001 14 2.45001 14 3.00001C14 3.55001 13.55 4.00001 13 4.00001C12.45 4.00001 12 3.55001 12 3.00001C12 2.45001 12.45 2.00001 13 2.00001ZM7 2.00001C7.55 2.00001 8 2.45001 8 3.00001C8 3.55001 7.55 4.00001 7 4.00001C6.45 4.00001 6 3.55001 6 3.00001C6 2.45001 6.45 2.00001 7 2.00001ZM18 17H2V15H18V17ZM18 12H2V6.00001H7.08L5 8.83001L6.62 10L9 6.76001L10 5.40001L11 6.76001L13.38 10L15 8.83001L12.92 6.00001H18V12Z" fill="#F7413D"/>
</svg>
