<svg width="57" height="48" viewBox="0 0 57 48" fill="none" xmlns="http://www.w3.org/2000/svg">
<path d="M43.5929 42.6356C43.4439 40.5005 42.5936 38.208 41.8964 36.2425C40.626 32.6694 39.0619 29.0094 37.9219 25.1839C40.2577 18.2529 42.575 11.0177 44.9212 4.09287C46.5908 -1.11678 54.3081 -0.984369 55.597 4.58115C55.9239 5.83287 55.655 7.14873 55.2371 8.39425C51.5088 19.4777 47.8405 30.5818 44.0646 41.6487C43.9922 41.8618 43.7129 42.4391 43.5929 42.6356Z" fill="#8A449A"/>
<path d="M5.51372 11.0362C8.37037 11.0362 10.6861 8.72047 10.6861 5.86382C10.6861 3.00717 8.37037 0.691406 5.51372 0.691406C2.65708 0.691406 0.341309 3.00717 0.341309 5.86382C0.341309 8.72047 2.65708 11.0362 5.51372 11.0362Z" fill="#525A5E"/>
<path d="M24.0147 42.9309C24.1471 42.0495 24.0705 41.1247 23.7499 40.2267L18.5112 25.5391L23.0216 13.0798L23.0319 13.084C22.6347 14.2385 22.6119 15.5316 23.0547 16.7729L28.2292 31.2867L24.0147 42.9309Z" fill="#F48626"/>
<path d="M43.2905 40.2412L33.5829 13.0177C32.7677 10.7315 30.6139 9.30396 28.3174 9.30396C27.6946 9.30396 27.0615 9.40947 26.4408 9.63085C24.7732 10.2246 23.5629 11.5302 23.0312 13.084C22.6339 14.2384 22.6112 15.5315 23.0539 16.7729L28.2284 31.2867L32.7615 43.9943C33.5767 46.2826 35.7305 47.7081 38.025 47.7081C38.6498 47.7081 39.2829 47.6026 39.9036 47.3812C42.8105 46.3446 44.327 43.1481 43.2905 40.2412Z" fill="#1BA6B0"/>
<path d="M23.75 40.2269L18.5114 25.5393L18.2135 24.7013C17.3983 22.4151 15.2445 20.9875 12.9479 20.9875C12.3252 20.9875 11.6921 21.0931 11.0714 21.3144C8.1645 22.351 6.64795 25.5496 7.6845 28.4565L13.221 43.98C14.0362 46.2662 16.19 47.6938 18.4866 47.6938C19.1093 47.6938 19.7424 47.5882 20.3631 47.3669C22.37 46.651 23.7169 44.9048 24.0128 42.9351C24.0128 42.9351 24.0135 42.9338 24.0148 42.931C24.1473 42.0496 24.0707 41.1248 23.75 40.2269Z" fill="#1BA6B0"/>
</svg>
