<svg width="24" height="24" viewBox="0 0 24 24" fill="none" xmlns="http://www.w3.org/2000/svg">
<path d="M9.00011 10C9.01047 9.20757 9.32986 8.45051 9.89024 7.89013C10.4506 7.32976 11.2077 7.01036 12.0001 7C12.7925 7.01036 13.5496 7.32976 14.11 7.89013C14.6704 8.45051 14.9897 9.20757 15.0001 10C14.9897 10.7924 14.6704 11.5495 14.11 12.1099C13.5496 12.6702 12.7925 12.9896 12.0001 13C11.2077 12.9896 10.4506 12.6702 9.89024 12.1099C9.32986 11.5495 9.01047 10.7924 9.00011 10ZM12.0001 19L16.0001 20V16.92C14.7938 17.6465 13.4081 18.0206 12.0001 18C10.5921 18.0206 9.20643 17.6465 8.00011 16.92V20M12.0001 4C11.2121 3.98562 10.4294 4.13256 9.70027 4.43179C8.97112 4.73102 8.31087 5.17621 7.76011 5.74C7.19022 6.29137 6.73988 6.9541 6.4371 7.68697C6.13431 8.41984 5.98557 9.20718 6.00011 10C5.98969 10.7878 6.14044 11.5694 6.4431 12.2968C6.74576 13.0242 7.19394 13.6821 7.76011 14.23C8.3083 14.7992 8.9674 15.25 9.69668 15.5544C10.426 15.8588 11.2099 16.0105 12.0001 16C12.7903 16.0105 13.5743 15.8588 14.3035 15.5544C15.0328 15.25 15.6919 14.7992 16.2401 14.23C16.8063 13.6821 17.2545 13.0242 17.5571 12.2968C17.8598 11.5694 18.0105 10.7878 18.0001 10C18.0146 9.20718 17.8659 8.41984 17.5631 7.68697C17.2603 6.9541 16.81 6.29137 16.2401 5.74C15.6893 5.17621 15.0291 4.73102 14.2999 4.43179C13.5708 4.13256 12.7881 3.98562 12.0001 4ZM20.0001 10C19.9797 10.96 19.7866 11.9084 19.4301 12.8C19.1105 13.7078 18.6257 14.5486 18.0001 15.28V23L12.0001 21L6.00011 23V15.28C4.7058 13.8265 3.99361 11.9463 4.00011 10C3.98248 8.95058 4.18014 7.90869 4.58089 6.93865C4.98163 5.9686 5.57696 5.09099 6.33011 4.36C7.06381 3.6001 7.94547 2.99863 8.92067 2.59273C9.89587 2.18683 10.9439 1.9851 12.0001 2C13.0563 1.9851 14.1043 2.18683 15.0795 2.59273C16.0547 2.99863 16.9364 3.6001 17.6701 4.36C18.4233 5.09099 19.0186 5.9686 19.4193 6.93865C19.8201 7.90869 20.0177 8.95058 20.0001 10Z" fill="#F7413D"/>
</svg>
