<svg width="26" height="28" viewBox="0 0 26 28" fill="none" xmlns="http://www.w3.org/2000/svg">
<path d="M18.9262 18.2796C22.14 16.4833 24.5976 15.1147 24.8076 15.0078C25.4798 14.6443 26.173 13.682 24.8076 12.9336C24.3665 12.6984 21.9929 11.3726 18.9262 9.66187L14.7041 13.9814L18.9262 18.2796Z" fill="#FFDD33"/>
<path d="M14.7041 13.9814L1.21875 27.8168C1.53383 27.8595 1.89092 27.774 2.31102 27.5388C3.19324 27.047 12.5616 21.8293 18.9262 18.2796L14.7041 13.9814Z" fill="#FF6666"/>
<path d="M14.7041 13.9815L18.9262 9.66201C18.9262 9.66201 3.25627 0.958791 2.31103 0.445579C1.95394 0.231741 1.55484 0.167589 1.19775 0.231741L14.7041 13.9815Z" fill="#7BFF7B"/>
<path d="M14.7041 13.9815L1.19771 0.231689C0.651569 0.359992 0.189453 0.851822 0.189453 1.85686C0.189453 3.46065 0.189453 24.8445 0.189453 26.1917C0.189453 27.1112 0.546543 27.7741 1.21871 27.8382L14.7041 13.9815Z" fill="#6ED8FF"/>
</svg>
