<svg width="44" height="44" viewBox="0 0 44 44" fill="none" xmlns="http://www.w3.org/2000/svg">
<path fill-rule="evenodd" clip-rule="evenodd" d="M22 34.4667C28.8851 34.4667 34.4667 28.8851 34.4667 22C34.4667 15.1149 28.8851 9.53333 22 9.53333C15.1148 9.53333 9.53333 15.1149 9.53333 22C9.53333 28.8851 15.1148 34.4667 22 34.4667ZM22 44C34.1503 44 44 34.1503 44 22C44 9.84974 34.1503 0 22 0C9.84973 0 0 9.84974 0 22C0 34.1503 9.84973 44 22 44Z" fill="#6938EF"/>
<path d="M22.252 22.4823C24.5431 20.1913 28.2577 20.1913 30.5488 22.4823L41.9567 33.8903C44.2478 36.1814 44.2478 39.896 41.9567 42.1871C39.6657 44.4781 35.9511 44.4781 33.66 42.1871L22.252 30.7791C19.961 28.488 19.961 24.7734 22.252 22.4823Z" fill="#F670C7"/>
<path d="M25.4551 33.9825L32.7004 41.2279C36.1756 39.2897 39.0709 36.4367 41.0605 32.9946L33.8746 25.8086C32.6124 29.748 29.4441 32.8344 25.4551 33.9825Z" fill="#6519BA"/>
</svg>
