<svg width="36" height="36" viewBox="0 0 36 36" fill="none" xmlns="http://www.w3.org/2000/svg">
<path d="M3.75 18C3.75 11.2825 3.75 7.92373 5.83686 5.83686C7.92374 3.75 11.2825 3.75 18 3.75C24.7176 3.75 28.0762 3.75 30.1632 5.83686C32.25 7.92373 32.25 11.2825 32.25 18C32.25 24.7175 32.25 28.0763 30.1632 30.1632C28.0762 32.25 24.7176 32.25 18 32.25C11.2825 32.25 7.92374 32.25 5.83686 30.1632C3.75 28.0763 3.75 24.7175 3.75 18Z" stroke="#F7413D" stroke-width="1.5" stroke-linecap="round" stroke-linejoin="round"/>
<path d="M10.5 25.5L16.7904 19.2098M16.7904 19.2098L10.5 10.5H14.6667L19.2097 16.7902M16.7904 19.2098L21.3333 25.5H25.5L19.2097 16.7902M25.5 10.5L19.2097 16.7902" stroke="#F7413D" stroke-width="1.5" stroke-linecap="round" stroke-linejoin="round"/>
</svg>
